<svg width="64" height="64" viewBox="0 0 64 64" fill="none" xmlns="http://www.w3.org/2000/svg">
<mask id="mask0_619_99" style="mask-type:alpha" maskUnits="userSpaceOnUse" x="0" y="0" width="64" height="64">
<circle cx="32" cy="32" r="32" fill="#E601A1"/>
</mask>
<g mask="url(#mask0_619_99)">
<rect width="64" height="64" fill="#8E2222"/>
<circle cx="32" cy="32" r="32" fill="#E64099"/>
<path d="M18.4578 47.0609C19.7275 44.5601 21.6648 42.4597 24.0551 40.9925C26.4454 39.5253 29.1953 38.7487 32 38.7487C34.8047 38.7487 37.5546 39.5253 39.9449 40.9925C42.3352 42.4597 44.2725 44.5601 45.5422 47.0609M52.25 32C52.25 43.1838 43.1838 52.25 32 52.25C20.8162 52.25 11.75 43.1838 11.75 32C11.75 20.8162 20.8162 11.75 32 11.75C43.1838 11.75 52.25 20.8162 52.25 32ZM40.4375 30.3125C40.4375 34.9724 36.6599 38.75 32 38.75C27.3401 38.75 23.5625 34.9724 23.5625 30.3125C23.5625 25.6526 27.3401 21.875 32 21.875C36.6599 21.875 40.4375 25.6526 40.4375 30.3125Z" stroke="white" stroke-width="3" stroke-linecap="round" stroke-linejoin="round"/>
</g>
</svg>
