<svg width="235" height="40" viewBox="0 0 235 40" fill="none" xmlns="http://www.w3.org/2000/svg">
<path d="M51.3447 20.6001V20.3113C51.3447 12.9774 56.6903 8.18436 63.8176 8.18436C70.1729 8.18436 74.5681 11.0717 75.1621 17.3085H67.9159C67.6189 14.8831 66.2528 13.5549 63.8176 13.5549C60.6697 13.5549 58.7097 15.9225 58.7097 20.2536V20.5423C58.7097 24.8156 60.6103 27.241 63.9364 27.241C66.3716 27.241 68.1535 25.9706 68.5098 23.3719H75.5184C75.0433 29.5509 70.4699 32.727 64.1146 32.727C55.5618 32.7847 51.3447 27.934 51.3447 20.6001Z" fill="#E601A1"/>
<path d="M78.0723 7.31769H84.19V17.77C85.1403 15.9798 87.1003 14.5361 90.0701 14.5361C93.515 14.5361 95.8908 16.615 95.8908 21.0616V32.3801H89.7731V22.2743C89.7731 20.3109 89.001 19.3292 87.2191 19.3292C85.3779 19.3292 84.19 20.3686 84.19 22.6208V32.3801H78.0723V7.31769Z" fill="#E601A1"/>
<path d="M98.3853 27.5297C98.3853 23.4297 101.949 21.8705 107.888 21.8705H109.611V21.4662C109.611 19.7916 109.195 18.6944 107.235 18.6944C105.572 18.6944 104.919 19.6761 104.8 20.7733H99.0387C99.3356 16.5577 102.721 14.5366 107.592 14.5366C112.521 14.5366 115.669 16.5 115.669 21.1198V32.3805L109.73 30.3593C108.898 31.6298 107.295 32.7847 104.444 32.7847C101.236 32.7847 98.3853 31.2256 98.3853 27.5297ZM109.611 26.2593V25.2198H108.007C105.572 25.2198 104.444 25.6818 104.444 27.1255C104.444 28.1072 105.156 28.7424 106.582 28.7424C108.304 28.7424 109.611 27.7607 109.611 26.2593Z" fill="#E601A1"/>
<path d="M119.055 10.2626C119.055 8.47242 120.48 7.14423 122.381 7.14423C124.282 7.14423 125.766 8.47242 125.766 10.2626C125.766 12.0528 124.282 13.3232 122.381 13.3232C120.48 13.3232 119.055 11.995 119.055 10.2626ZM119.352 14.9979H125.47V32.3798H119.352V14.9979Z" fill="#E601A1"/>
<path d="M129.271 14.9985L135.389 17.7704C136.339 15.9802 138.299 14.5366 141.269 14.5366C144.714 14.5366 147.089 16.6155 147.089 21.062V32.3805H140.972V22.2747C140.972 20.3113 140.2 19.3296 138.418 19.3296C136.577 19.3296 135.389 20.369 135.389 22.6212V32.3805H129.271V14.9985Z" fill="#E601A1"/>
<path d="M149.643 23.8907V23.6019C149.643 17.8272 153.92 14.4778 159.206 14.4778C163.601 14.4778 167.64 16.3258 167.937 21.6385H162.175C161.879 20.0216 161.106 19.0976 159.325 19.0976C157.186 19.0976 155.88 20.5991 155.88 23.5442V23.8329C155.88 26.8358 157.068 28.395 159.384 28.395C161.106 28.395 162.294 27.4133 162.472 25.5076H167.996C167.818 29.8964 164.789 32.7838 159.028 32.7838C153.682 32.7838 149.643 29.7232 149.643 23.8907Z" fill="#E601A1"/>
<path d="M169.6 23.8907V23.6019C169.6 18.0004 173.876 14.4778 179.281 14.4778C184.151 14.4778 188.368 17.192 188.368 23.4287V24.9879H175.777C175.955 27.2978 177.321 28.6259 179.519 28.6259C181.538 28.6259 182.37 27.702 182.607 26.547H188.368C187.834 30.4739 184.686 32.726 179.281 32.726C173.698 32.7838 169.6 29.5499 169.6 23.8907ZM182.429 21.6963C182.31 19.6174 181.241 18.4624 179.281 18.4624C177.44 18.4624 176.192 19.6174 175.836 21.6963H182.429Z" fill="#E601A1"/>
<path d="M190.982 14.9977H197.099V18.4626C198.228 15.8639 200.128 14.7667 202.861 14.7667V20.3105C199.119 20.195 197.099 21.3499 197.099 24.1218V32.3797H190.982V14.9977Z" fill="#E601A1"/>
<path d="M212.898 11.3601V14.9982H216.403V19.0405H212.898V26.2012C212.898 27.4716 213.552 28.0491 214.74 28.0491C215.452 28.0491 215.927 27.9336 216.462 27.7604V32.2647C215.69 32.4379 214.502 32.7844 213.076 32.7844C209.038 32.7844 206.781 30.8787 206.781 26.7787V19.0405H204.642V14.9982H206.781" fill="#E601A1"/>
<path d="M218.244 26.8358H223.887C224.065 28.1062 224.659 28.7992 226.441 28.7992C227.926 28.7992 228.638 28.2217 228.638 27.3555C228.638 26.547 227.807 26.1428 225.312 25.7963C220.501 25.2189 218.482 23.8329 218.482 20.1948C218.482 16.3258 221.986 14.4778 226.144 14.4778C230.539 14.4778 233.627 15.9215 234.043 20.0793H228.519C228.282 18.9244 227.629 18.3469 226.203 18.3469C224.896 18.3469 224.184 18.9244 224.184 19.7329C224.184 20.5413 225.015 20.8878 227.213 21.1765C232.202 21.754 234.578 23.0245 234.578 26.778C234.578 30.8781 231.43 32.7838 226.5 32.7838C221.392 32.7838 218.363 30.7049 218.244 26.8358Z" fill="#E601A1"/>
<path d="M11.18 16.8976C9.57288 15.2797 9.57288 12.5986 11.18 10.9808C12.7872 9.36287 15.4504 9.36287 17.0576 10.9808L20.3637 14.309L26.8841 7.79122L23.578 4.463C18.3892 -0.760453 9.89431 -0.760453 4.70554 4.463C-0.483227 9.68645 -0.483227 18.2381 4.70554 23.4616L8.01165 26.7898L14.4861 20.2258L11.18 16.8976Z" fill="url(#paint0_linear_619_76)"/>
<path d="M20.9815 26.7925L26.8908 20.8437L20.397 14.3065L14.4877 20.2554L20.9815 26.7925Z" fill="url(#paint1_linear_619_76)"/>
<path d="M33.2355 14.4291L39.1448 8.48026L32.651 1.94309L26.7417 7.89192L33.2355 14.4291Z" fill="url(#paint2_linear_619_76)"/>
<path d="M33.3667 27.3439L39.8605 20.8067L33.3667 14.2695L26.8729 20.8067L33.3667 27.3439Z" fill="url(#paint3_linear_619_76)"/>
<path d="M33.3667 39.4288L39.434 33.3209L33.3667 27.213L27.2994 33.3209L33.3667 39.4288Z" fill="url(#paint4_linear_619_76)"/>
<path d="M20.9688 39.8247L27.4625 33.2875L20.9688 26.7503L14.475 33.2875L20.9688 39.8247Z" fill="url(#paint5_linear_619_76)"/>
<path d="M8.11164 39.8247L14.6054 33.2875L8.11165 26.7503L1.61788 33.2875L8.11164 39.8247Z" fill="url(#paint6_linear_619_76)"/>
<defs>
<linearGradient id="paint0_linear_619_76" x1="0.813967" y1="0.365051" x2="41.5231" y2="38.3635" gradientUnits="userSpaceOnUse">
<stop stop-color="#FF0089"/>
<stop offset="1" stop-color="#8000FF"/>
</linearGradient>
<linearGradient id="paint1_linear_619_76" x1="0.813967" y1="0.365051" x2="41.5231" y2="38.3635" gradientUnits="userSpaceOnUse">
<stop stop-color="#FF0089"/>
<stop offset="1" stop-color="#8000FF"/>
</linearGradient>
<linearGradient id="paint2_linear_619_76" x1="0.813967" y1="0.365051" x2="41.5231" y2="38.3635" gradientUnits="userSpaceOnUse">
<stop stop-color="#FF0089"/>
<stop offset="1" stop-color="#8000FF"/>
</linearGradient>
<linearGradient id="paint3_linear_619_76" x1="0.813967" y1="0.365051" x2="41.5231" y2="38.3635" gradientUnits="userSpaceOnUse">
<stop stop-color="#FF0089"/>
<stop offset="1" stop-color="#8000FF"/>
</linearGradient>
<linearGradient id="paint4_linear_619_76" x1="0.813967" y1="0.365051" x2="41.5231" y2="38.3635" gradientUnits="userSpaceOnUse">
<stop stop-color="#FF0089"/>
<stop offset="1" stop-color="#8000FF"/>
</linearGradient>
<linearGradient id="paint5_linear_619_76" x1="0.813967" y1="0.365051" x2="41.5231" y2="38.3635" gradientUnits="userSpaceOnUse">
<stop stop-color="#FF0089"/>
<stop offset="1" stop-color="#8000FF"/>
</linearGradient>
<linearGradient id="paint6_linear_619_76" x1="0.813967" y1="0.365051" x2="41.5231" y2="38.3635" gradientUnits="userSpaceOnUse">
<stop stop-color="#FF0089"/>
<stop offset="1" stop-color="#8000FF"/>
</linearGradient>
</defs>
</svg>
