<svg width="81" height="18" viewBox="0 0 81 18" fill="none" xmlns="http://www.w3.org/2000/svg">
<path d="M70.9852 4.25977H66.562V8.64349H70.9852V4.25977Z" fill="white"/>
<path d="M14.7731 4.9278H9.33795L5.42074 8.95398V0H0.997559V17.0219H5.43706V13.4932L5.77982 13.1978L9.50116 17.0219H14.9036L8.83197 10.6795L14.7731 4.9278Z" fill="white"/>
<path d="M70.9852 10.6328H66.562V17.0374H70.9852V10.6328Z" fill="white"/>
<path d="M24.4843 5.05249C23.456 4.50841 22.2972 4.24414 21.0077 4.24414C19.7183 4.24414 18.5432 4.50841 17.4986 5.05249C16.454 5.59656 15.6379 6.35827 15.0503 7.32207C14.4627 8.28587 14.1689 9.38957 14.1689 10.6176C14.1689 11.8612 14.4627 12.9649 15.0503 13.9443C15.6379 14.9236 16.454 15.6853 17.4986 16.2294C18.5432 16.7735 19.7183 17.0378 21.0077 17.0378C22.2808 17.0378 23.4397 16.7735 24.4843 16.2294C25.5125 15.6853 26.3286 14.9236 26.9162 13.9443C27.5038 12.9649 27.7976 11.8612 27.7976 10.6176C27.7976 9.38957 27.5038 8.30141 26.9162 7.32207C26.3449 6.35827 25.5288 5.59656 24.4843 5.05249ZM20.9914 13.3847C19.3756 13.3847 18.0535 12.1566 18.0535 10.6487C18.0535 9.14085 19.3756 7.91279 20.9914 7.91279C22.6073 7.91279 23.9293 9.14085 23.9293 10.6487C23.9293 12.1566 22.6073 13.3847 20.9914 13.3847Z" fill="white"/>
<path d="M78.3132 12.8092C77.7745 12.8092 77.3339 12.3895 77.3502 11.8765V8.47208H80.6472V4.25936H77.3502V0H72.927V11.8609C72.927 14.7212 75.3753 17.053 78.3784 17.0219H80.7941V12.8092H78.3132Z" fill="white"/>
<path d="M60.7185 4.25977H57.1277L54.8264 10.8975L52.8188 4.25977H49.1954L47.6775 8.58131L47.5795 8.84557L47.4653 8.39476L47.2694 7.55533L47.2368 7.43097C47.2368 7.41542 47.2368 7.39988 47.2205 7.39988C47.2041 7.35324 47.1878 7.29106 47.1715 7.24443V7.22888C47.1552 7.18225 47.1389 7.13561 47.1225 7.07343C47.1062 7.02679 47.0899 6.96461 47.0736 6.91798C47.0736 6.90243 47.0736 6.90243 47.0572 6.88689C46.5839 5.44119 45.1802 4.39967 43.5154 4.39967C41.8833 4.39967 40.4796 5.4101 39.9899 6.80916V6.82471C39.941 6.96461 39.9083 7.10452 39.8757 7.25997C39.6472 8.22377 39.4677 9.09429 39.4187 9.38965L38.7658 13.1671C38.7658 13.1982 38.7658 13.2293 38.7495 13.2604C38.6842 13.4625 38.5047 13.6024 38.2762 13.6024C38.1946 13.6024 38.0966 13.5713 38.015 13.5246C37.9008 13.4625 37.7865 13.2137 37.7376 12.9339L36.8562 8.93884C36.8235 8.72121 36.7746 8.51912 36.7093 8.31704C36.4318 7.36879 35.7137 6.57599 34.7833 6.18736C34.2774 5.95418 33.7224 5.81428 33.1185 5.81428C31.1599 5.81428 29.7399 7.1667 29.3808 9.0632C29.3156 9.24974 29.2666 9.45183 29.2339 9.63837L28.7606 11.9701C28.6627 12.4365 28.7606 12.9028 29.0381 13.2915C29.2992 13.6801 29.7073 13.9444 30.1806 14.0376C30.6539 14.1309 31.1273 14.0376 31.5353 13.7734C31.927 13.5091 32.2045 13.1049 32.3024 12.6541L32.7758 10.2757C32.8247 9.99591 32.8574 9.80937 33.0532 9.68501C33.1348 9.63837 33.2164 9.60728 33.3144 9.60728C33.5266 9.60728 33.7387 9.74719 33.7877 9.94927C33.7877 9.98036 33.7877 9.99591 33.804 10.0425L34.4569 13.82C34.7507 15.6699 36.3012 16.9757 38.2272 16.9912H38.2598C38.3251 16.9912 38.3904 16.9912 38.4557 16.9912C38.5047 16.9912 38.57 16.9912 38.6189 16.9757C38.6516 16.9757 38.6842 16.9757 38.7169 16.9601C38.7495 16.9601 38.7821 16.9601 38.8148 16.9446C38.8311 16.9446 38.8474 16.9446 38.8637 16.9446C38.9127 16.9446 38.978 16.929 39.027 16.9135C39.027 16.9135 39.027 16.9135 39.0433 16.9135C39.0759 16.9135 39.1249 16.8979 39.1575 16.8824C39.1902 16.8824 39.2228 16.8668 39.2555 16.8513C39.3044 16.8358 39.3534 16.8202 39.4187 16.8047C39.4677 16.7891 39.5166 16.7736 39.5819 16.758C39.6472 16.7269 39.7288 16.7114 39.7941 16.6803C39.8594 16.6492 39.9083 16.6337 39.9736 16.6026C40.0226 16.5715 40.0716 16.5559 40.1205 16.5249C40.1532 16.5093 40.1858 16.4938 40.2184 16.4627C40.2511 16.4471 40.2837 16.4316 40.3164 16.416C40.3327 16.4005 40.349 16.3849 40.3817 16.3849C40.4143 16.3694 40.4633 16.3383 40.4959 16.3072C40.5122 16.2917 40.5286 16.2761 40.5449 16.2761C40.5938 16.245 40.6428 16.214 40.6918 16.1673C40.7407 16.1362 40.7897 16.0896 40.8387 16.0585C40.904 16.0119 40.9529 15.9497 41.0019 15.9031C41.4099 15.4989 41.6711 15.0014 41.8017 14.4574C42.0628 13.4003 42.275 12.3899 42.324 12.079L42.9768 8.30149C42.9768 8.2704 42.9768 8.23931 42.9931 8.20822C43.0584 8.00614 43.238 7.86623 43.4665 7.86623C43.5481 7.86623 43.646 7.89732 43.7276 7.94396C43.7929 7.97505 43.8745 8.03723 43.9072 8.16159C43.9561 8.2704 43.9724 8.41031 44.0051 8.53467L45.5556 15.5766C45.7189 16.3383 46.3881 16.9446 47.2041 16.9912C47.2531 16.9912 47.3021 16.9912 47.351 16.9912C47.3674 16.9912 47.4326 16.9912 47.4653 16.9912C47.4653 16.9912 47.5306 16.9912 47.5469 16.9912C47.6775 16.9757 47.7917 16.9601 47.9223 16.929C47.9223 16.929 47.9223 16.929 47.9386 16.929C48.5262 16.758 48.9995 16.3383 49.228 15.7787C49.3423 15.5611 49.4239 15.359 49.4892 15.2035C49.6524 14.7993 50.6317 12.3121 51.203 10.8664L53.1126 17.0068H56.5075L58.8252 11.2395L60.6695 17.0068H64.652L60.7185 4.25977Z" fill="white"/>
</svg>
